<svg width="1984" height="916" viewBox="0 0 1984 916" fill="none" xmlns="http://www.w3.org/2000/svg">
<rect x="15" y="15" width="1954" height="886" stroke="#FFBA54" stroke-width="30"/>
<path d="M246.973 753V176.2H314.541L696.053 650H660.621V176.2H743.021V753H675.453L293.941 279.2H329.373V753H246.973ZM1030.2 753V247.888H832.444V176.2H1309.54V247.888H1111.78V753H1030.2Z" fill="#545454"/>
<path d="M1567.38 759.592C1523.43 759.592 1481.41 753 1441.31 739.816C1401.21 726.083 1369.62 708.504 1346.55 687.08L1377.04 622.808C1399.01 642.035 1427.03 657.965 1461.09 670.6C1495.14 683.235 1530.58 689.552 1567.38 689.552C1600.89 689.552 1628.08 685.707 1648.96 678.016C1669.83 670.325 1685.21 659.888 1695.1 646.704C1704.99 632.971 1709.93 617.589 1709.93 600.56C1709.93 580.784 1703.34 564.853 1690.16 552.768C1677.52 540.683 1660.77 531.069 1639.89 523.928C1619.57 516.237 1597.05 509.645 1572.33 504.152C1547.61 498.659 1522.61 492.341 1497.34 485.2C1472.62 477.509 1449.82 467.896 1428.95 456.36C1408.62 444.824 1392.14 429.443 1379.51 410.216C1366.87 390.44 1360.56 365.171 1360.56 334.408C1360.56 304.744 1368.25 277.552 1383.63 252.832C1399.56 227.563 1423.73 207.512 1456.14 192.68C1489.1 177.299 1530.85 169.608 1581.39 169.608C1614.9 169.608 1648.13 174.003 1681.09 182.792C1714.05 191.581 1742.62 204.216 1766.79 220.696L1739.6 286.616C1714.88 270.136 1688.78 258.325 1661.32 251.184C1633.85 243.493 1607.21 239.648 1581.39 239.648C1548.98 239.648 1522.34 243.768 1501.46 252.008C1480.59 260.248 1465.21 271.235 1455.32 284.968C1445.98 298.701 1441.31 314.083 1441.31 331.112C1441.31 351.437 1447.63 367.643 1460.26 379.728C1473.45 391.813 1490.2 401.427 1510.53 408.568C1531.4 415.709 1554.2 422.301 1578.92 428.344C1603.64 433.837 1628.36 440.155 1653.08 447.296C1678.35 454.437 1701.14 463.776 1721.47 475.312C1742.34 486.848 1759.1 502.229 1771.73 521.456C1784.37 540.683 1790.69 565.403 1790.69 595.616C1790.69 624.731 1782.72 651.923 1766.79 677.192C1750.86 701.912 1726.14 721.963 1692.63 737.344C1659.67 752.176 1617.92 759.592 1567.38 759.592Z" fill="#7943E6"/>
</svg>
