<svg width="5073" height="859" viewBox="0 0 5073 859" fill="none" xmlns="http://www.w3.org/2000/svg">
<path d="M369.364 586.88L0.211908 441.032V370.168L369.364 224.32V292.712L27.4039 424.552V386.648L369.364 518.488V586.88ZM401.526 776.4L673.446 0.191945H745.134L473.214 776.4H401.526ZM4703.61 586.88V518.488L5046.39 386.648V424.552L4703.61 292.712V224.32L5072.76 370.168V441.032L4703.61 586.88Z" fill="#FFBA54"/>
<path d="M800.805 694V117.2H868.373L1249.89 591H1214.45V117.2H1296.85V694H1229.29L847.773 220.2H883.205V694H800.805ZM1652.43 698.944C1605.74 698.944 1564.54 689.331 1528.83 670.104C1493.67 650.877 1466.2 624.509 1446.43 591C1427.2 557.491 1417.59 519.037 1417.59 475.64C1417.59 432.243 1426.93 393.789 1445.6 360.28C1464.83 326.771 1490.92 300.677 1523.88 282C1557.39 262.773 1595.02 253.16 1636.77 253.16C1679.07 253.16 1716.43 262.499 1748.84 281.176C1781.25 299.853 1806.52 326.221 1824.64 360.28C1843.32 393.789 1852.66 433.067 1852.66 478.112C1852.66 481.408 1852.39 485.253 1851.84 489.648C1851.84 494.043 1851.56 498.163 1851.01 502.008H1479.39V445.152H1809.81L1777.68 464.928C1778.23 436.912 1772.46 411.917 1760.37 389.944C1748.29 367.971 1731.53 350.941 1710.11 338.856C1689.23 326.221 1664.79 319.904 1636.77 319.904C1609.31 319.904 1584.86 326.221 1563.44 338.856C1542.01 350.941 1525.26 368.245 1513.17 390.768C1501.09 412.741 1495.04 438.011 1495.04 466.576V479.76C1495.04 508.875 1501.64 534.968 1514.82 558.04C1528.55 580.563 1547.51 598.141 1571.68 610.776C1595.85 623.411 1623.59 629.728 1654.9 629.728C1680.72 629.728 1704.07 625.333 1724.94 616.544C1746.36 607.755 1765.04 594.571 1780.97 576.992L1824.64 628.08C1804.87 651.152 1780.15 668.731 1750.48 680.816C1721.37 692.901 1688.68 698.944 1652.43 698.944ZM2112.47 698.944C2068.52 698.944 2034.47 687.133 2010.3 663.512C1986.12 639.891 1974.04 606.107 1974.04 562.16V161.696H2053.14V558.864C2053.14 582.485 2058.91 600.613 2070.45 613.248C2082.53 625.883 2099.56 632.2 2121.54 632.2C2146.26 632.2 2166.86 625.333 2183.34 611.6L2208.06 668.456C2195.97 678.893 2181.41 686.584 2164.38 691.528C2147.9 696.472 2130.6 698.944 2112.47 698.944ZM1899.88 322.376V257.28H2178.39V322.376H1899.88Z" fill="#545454"/>
<path d="M2315.23 694V218.552C2315.23 175.704 2327.59 141.645 2352.31 116.376C2377.58 90.5573 2413.28 77.648 2459.43 77.648C2476.46 77.648 2492.66 79.8453 2508.04 84.24C2523.97 88.0853 2537.43 94.4026 2548.42 103.192L2524.52 163.344C2516.28 156.752 2506.94 151.808 2496.51 148.512C2486.07 144.667 2475.08 142.744 2463.55 142.744C2440.48 142.744 2422.9 149.336 2410.81 162.52C2398.73 175.155 2392.68 194.107 2392.68 219.376V277.88L2394.33 314.136V694H2315.23ZM2241.07 322.376V257.28H2519.58V322.376H2241.07ZM2621.18 858.8C2600.31 858.8 2579.98 855.229 2560.21 848.088C2540.43 841.496 2523.4 831.608 2509.12 818.424L2542.9 759.096C2553.89 769.533 2565.97 777.499 2579.16 782.992C2592.34 788.485 2606.35 791.232 2621.18 791.232C2640.41 791.232 2656.34 786.288 2668.97 776.4C2681.61 766.512 2693.42 748.933 2704.41 723.664L2731.6 663.512L2739.84 653.624L2911.23 257.28H2988.69L2776.92 737.672C2764.28 768.435 2750 792.605 2734.07 810.184C2718.69 827.763 2701.66 840.123 2682.98 847.264C2664.3 854.955 2643.7 858.8 2621.18 858.8ZM2725.01 708.008L2525.6 257.28H2608L2777.74 646.208L2725.01 708.008ZM3236.51 700.592C3192.56 700.592 3150.54 694 3110.44 680.816C3070.34 667.083 3038.75 649.504 3015.68 628.08L3046.17 563.808C3068.14 583.035 3096.16 598.965 3130.21 611.6C3164.27 624.235 3199.71 630.552 3236.51 630.552C3270.02 630.552 3297.21 626.707 3318.09 619.016C3338.96 611.325 3354.34 600.888 3364.23 587.704C3374.12 573.971 3379.06 558.589 3379.06 541.56C3379.06 521.784 3372.47 505.853 3359.29 493.768C3346.65 481.683 3329.9 472.069 3309.02 464.928C3288.7 457.237 3266.17 450.645 3241.45 445.152C3216.73 439.659 3191.74 433.341 3166.47 426.2C3141.75 418.509 3118.95 408.896 3098.08 397.36C3077.75 385.824 3061.27 370.443 3048.64 351.216C3036 331.44 3029.69 306.171 3029.69 275.408C3029.69 245.744 3037.38 218.552 3052.76 193.832C3068.69 168.563 3092.86 148.512 3125.27 133.68C3158.23 118.299 3199.98 110.608 3250.52 110.608C3284.03 110.608 3317.26 115.003 3350.22 123.792C3383.18 132.581 3411.75 145.216 3435.92 161.696L3408.73 227.616C3384.01 211.136 3357.91 199.325 3330.45 192.184C3302.98 184.493 3276.34 180.648 3250.52 180.648C3218.11 180.648 3191.47 184.768 3170.59 193.008C3149.72 201.248 3134.33 212.235 3124.45 225.968C3115.11 239.701 3110.44 255.083 3110.44 272.112C3110.44 292.437 3116.76 308.643 3129.39 320.728C3142.57 332.813 3159.33 342.427 3179.65 349.568C3200.53 356.709 3223.33 363.301 3248.05 369.344C3272.77 374.837 3297.49 381.155 3322.21 388.296C3347.48 395.437 3370.27 404.776 3390.6 416.312C3411.47 427.848 3428.23 443.229 3440.86 462.456C3453.5 481.683 3459.81 506.403 3459.81 536.616C3459.81 565.731 3451.85 592.923 3435.92 618.192C3419.99 642.912 3395.27 662.963 3361.76 678.344C3328.8 693.176 3287.05 700.592 3236.51 700.592ZM3755.71 698.944C3711.76 698.944 3672.76 689.331 3638.7 670.104C3604.64 650.877 3577.72 624.509 3557.95 591C3538.17 556.941 3528.28 518.488 3528.28 475.64C3528.28 432.243 3538.17 393.789 3557.95 360.28C3577.72 326.771 3604.64 300.677 3638.7 282C3672.76 262.773 3711.76 253.16 3755.71 253.16C3799.11 253.16 3837.83 262.773 3871.89 282C3906.5 300.677 3933.42 326.771 3952.64 360.28C3972.42 393.24 3982.31 431.693 3982.31 475.64C3982.31 519.037 3972.42 557.491 3952.64 591C3933.42 624.509 3906.5 650.877 3871.89 670.104C3837.83 689.331 3799.11 698.944 3755.71 698.944ZM3755.71 629.728C3783.72 629.728 3808.72 623.411 3830.69 610.776C3853.21 598.141 3870.79 580.288 3883.43 557.216C3896.06 533.595 3902.38 506.403 3902.38 475.64C3902.38 444.328 3896.06 417.411 3883.43 394.888C3870.79 371.816 3853.21 353.963 3830.69 341.328C3808.72 328.693 3783.72 322.376 3755.71 322.376C3727.69 322.376 3702.7 328.693 3680.72 341.328C3658.75 353.963 3641.17 371.816 3627.99 394.888C3614.8 417.411 3608.21 444.328 3608.21 475.64C3608.21 506.403 3614.8 533.595 3627.99 557.216C3641.17 580.288 3658.75 598.141 3680.72 610.776C3702.7 623.411 3727.69 629.728 3755.71 629.728ZM4103.24 694V218.552C4103.24 175.704 4115.6 141.645 4140.32 116.376C4165.59 90.5573 4201.3 77.648 4247.44 77.648C4264.47 77.648 4280.68 79.8453 4296.06 84.24C4311.99 88.0853 4325.45 94.4026 4336.43 103.192L4312.54 163.344C4304.3 156.752 4294.96 151.808 4284.52 148.512C4274.09 144.667 4263.1 142.744 4251.56 142.744C4228.49 142.744 4210.91 149.336 4198.83 162.52C4186.74 175.155 4180.7 194.107 4180.7 219.376V277.88L4182.35 314.136V694H4103.24ZM4029.08 322.376V257.28H4307.59V322.376H4029.08ZM4532.17 698.944C4488.22 698.944 4454.16 687.133 4429.99 663.512C4405.82 639.891 4393.73 606.107 4393.73 562.16V161.696H4472.84V558.864C4472.84 582.485 4478.61 600.613 4490.14 613.248C4502.23 625.883 4519.26 632.2 4541.23 632.2C4565.95 632.2 4586.55 625.333 4603.03 611.6L4627.75 668.456C4615.67 678.893 4601.11 686.584 4584.08 691.528C4567.6 696.472 4550.29 698.944 4532.17 698.944ZM4319.57 322.376V257.28H4598.09V322.376H4319.57Z" fill="#7943E6"/>
</svg>
